<?xml version="1.0" encoding="utf-8"?>
<!-- Generator: Adobe Illustrator 27.1.1, SVG Export Plug-In . SVG Version: 6.00 Build 0)  -->
<svg version="1.1" id="Layer_1" xmlns="http://www.w3.org/2000/svg" xmlns:xlink="http://www.w3.org/1999/xlink" x="0px" y="0px"
	 viewBox="0 0 161.4 8.7" style="enable-background:new 0 0 161.4 8.7;" xml:space="preserve">
<style type="text/css">
	.st0{fill:#FFFFFF;}
</style>
<path class="st0" d="M3.9,0.2C4,0.1,4.1,0,4.3,0s0.2,0,0.3,0.1L5,0.6c0.1,0.1,0.1,0.2,0.1,0.3s0,0.2-0.1,0.3l-3,3l3,3
	c0.1,0.1,0.1,0.2,0.1,0.3S5.1,7.9,5,8L4.6,8.4C4.5,8.5,4.4,8.5,4.3,8.5S4,8.5,3.9,8.4L0.2,4.6C0.1,4.5,0,4.4,0,4.3S0.1,4,0.2,4
	L3.9,0.2z"/>
<path class="st0" d="M15.5,7.3L16.6,6c0.8,0.6,1.5,1,2.5,1c0.8,0,1.2-0.3,1.2-0.8l0,0c0-0.5-0.3-0.7-1.7-1.1
	c-1.7-0.4-2.8-0.9-2.8-2.6l0,0C15.9,1,17.1,0,18.8,0c1.2,0,2.3,0.4,3.1,1.1l-1,1.4c-0.7-0.5-1.5-0.8-2.2-0.8s-1,0.3-1,0.7l0,0
	c0,0.6,0.4,0.7,1.8,1.1C21.2,4,22.2,4.6,22.2,6l0,0c0,1.7-1.3,2.6-3.1,2.6C17.8,8.7,16.5,8.2,15.5,7.3z"/>
<path class="st0" d="M22.8,0.1h2l1.7,5.7l1.9-5.7H30l1.9,5.7l1.7-5.7h1.9l-2.9,8.5H31l-1.9-5.5l-1.9,5.5h-1.6L22.8,0.1z"/>
<path class="st0" d="M37,0.1h1.8v8.4H37V0.1z"/>
<path class="st0" d="M41,0.1h3.4c2,0,3.2,1.2,3.2,2.9l0,0c0,1.9-1.5,3-3.4,3h-1.4v2.5H41V0.1z M44.3,4.4c0.9,0,1.5-0.6,1.5-1.3l0,0
	c0-0.8-0.6-1.3-1.5-1.3h-1.4v2.6H44.3z"/>
<path class="st0" d="M49,0.1h6.3v1.6h-4.5v1.7h4V5h-4v1.8h4.6v1.6H49V0.1z"/>
<path class="st0" d="M60.6,0.1h1.8v6.7h4.2v1.7h-6V0.1L60.6,0.1z"/>
<path class="st0" d="M68.1,0.1h6.3v1.6h-4.5v1.7h4V5h-4v1.8h4.6v1.6h-6.4V0.1z"/>
<path class="st0" d="M76.1,0.1h6.4v1.7H78v1.8h4v1.7h-4v3.3h-1.8L76.1,0.1L76.1,0.1z"/>
<path class="st0" d="M85.9,1.8h-2.6V0.1h7v1.7h-2.6v6.7h-1.8V1.8z"/>
<path class="st0" d="M95.4,0.1h6.4v1.7h-4.5v1.8h4v1.7h-4v3.3h-1.8L95.4,0.1L95.4,0.1z"/>
<path class="st0" d="M102.9,4.4L102.9,4.4c0-2.4,1.9-4.4,4.5-4.4s4.4,1.9,4.4,4.3l0,0c0,2.4-1.9,4.3-4.5,4.3
	C104.7,8.7,102.9,6.8,102.9,4.4z M109.8,4.4L109.8,4.4c0-1.5-1.1-2.7-2.5-2.7c-1.5,0-2.5,1.2-2.5,2.6l0,0c0,1.4,1.1,2.6,2.5,2.6
	C108.8,7,109.8,5.8,109.8,4.4z"/>
<path class="st0" d="M113.4,0.1h3.8c1.1,0,1.9,0.3,2.4,0.9c0.5,0.5,0.7,1.1,0.7,1.9l0,0c0,1.4-0.7,2.2-1.8,2.6l2.1,3h-2.2l-1.8-2.7
	h-1.5v2.7h-1.8V0.1H113.4z M117.1,4.2c0.9,0,1.4-0.5,1.4-1.2l0,0c0-0.8-0.6-1.2-1.5-1.2h-1.8v2.4H117.1L117.1,4.2z"/>
<path class="st0" d="M125.7,0.1h2l2.2,3.6l2.2-3.6h2v8.4h-1.8V3.1l-2.4,3.6l0,0l-2.3-3.5v5.4h-1.8C125.7,8.5,125.7,0.1,125.7,0.1z"
	/>
<path class="st0" d="M135.7,4.4L135.7,4.4c0-2.4,1.9-4.4,4.5-4.4s4.4,1.9,4.4,4.3l0,0c0,2.4-1.9,4.3-4.5,4.3
	C137.6,8.7,135.7,6.8,135.7,4.4z M142.7,4.4L142.7,4.4c0-1.5-1.1-2.7-2.5-2.7s-2.5,1.2-2.5,2.6l0,0c0,1.4,1.1,2.6,2.5,2.6
	S142.7,5.8,142.7,4.4z"/>
<path class="st0" d="M146.3,0.1h3.8c1.1,0,1.9,0.3,2.4,0.9c0.5,0.5,0.7,1.1,0.7,1.9l0,0c0,1.4-0.7,2.2-1.8,2.6l2.1,3h-2.2l-1.8-2.7
	H148v2.7h-1.8V0.1H146.3z M150,4.2c0.9,0,1.4-0.5,1.4-1.2l0,0c0-0.8-0.6-1.2-1.5-1.2h-1.8v2.4H150L150,4.2z"/>
<path class="st0" d="M155,0.1h6.3v1.6h-4.5v1.7h4V5h-4v1.8h4.6v1.6H155V0.1z"/>
</svg>
