<?xml version="1.0" encoding="utf-8"?>
<!-- Generator: Adobe Illustrator 27.1.1, SVG Export Plug-In . SVG Version: 6.00 Build 0)  -->
<svg version="1.1" xmlns="http://www.w3.org/2000/svg" xmlns:xlink="http://www.w3.org/1999/xlink" x="0px" y="0px"
	 viewBox="0 0 85.8 18.3" style="enable-background:new 0 0 85.8 18.3;" xml:space="preserve">
<style type="text/css">
	.st0{fill:#ED1C24;}
	.st1{fill:#FFFFFF;}
</style>
<g id="Layer_2">
</g>
<g id="Layer_1">
	<g>
		<path class="st0" d="M78.3,18.3H7.6c-4.2,0-7.6-3.4-7.6-7.6V7.6C0,3.4,3.4,0,7.6,0h70.7c4.2,0,7.6,3.4,7.6,7.6v3.2
			C85.8,14.9,82.4,18.3,78.3,18.3z"/>
		<g>
			<g>
				<path class="st1" d="M10.3,10.8c0.6,0.6,1.5,1.1,2.7,1.1c1,0,1.5-0.5,1.5-0.9c0-0.6-0.7-0.8-1.7-1.1c-1.4-0.3-3.1-0.7-3.1-2.6
					c0-1.4,1.2-2.5,3.2-2.5c1.3,0,2.4,0.4,3.3,1.2l-1,1.3c-0.7-0.6-1.6-0.9-2.4-0.9c-0.8,0-1.2,0.4-1.2,0.9c0,0.6,0.7,0.7,1.7,1
					c1.4,0.3,3.1,0.7,3.1,2.6c0,1.5-1.1,2.7-3.4,2.7c-1.6,0-2.8-0.5-3.6-1.3L10.3,10.8z"/>
				<path class="st1" d="M23.2,9.8h-4v3.5h-1.8V5h1.8v3.3h4V5H25v8.4h-1.8V9.8z"/>
				<path class="st1" d="M30.6,4.8c2.5,0,4.4,1.8,4.4,4.3s-1.8,4.3-4.4,4.3c-2.5,0-4.4-1.8-4.4-4.3S28.1,4.8,30.6,4.8z M30.6,6.4
					c-1.5,0-2.5,1.2-2.5,2.7c0,1.6,1,2.7,2.5,2.7c1.5,0,2.5-1.2,2.5-2.7C33.1,7.6,32.1,6.4,30.6,6.4z"/>
				<path class="st1" d="M36.2,5h3.9C42,5,43,6.2,43,7.7c0,1.5-1,2.7-2.8,2.7H38v3h-1.8V5z M39.9,6.5H38v2.3h1.9
					c0.7,0,1.2-0.5,1.2-1.2C41.1,7,40.6,6.5,39.9,6.5z"/>
				<path class="st1" d="M49.1,7.7v5.6h-1.8V5h1.8l3.9,5.4V5h1.8v8.4h-1.7L49.1,7.7z"/>
				<path class="st1" d="M60.4,4.8c2.5,0,4.4,1.8,4.4,4.3s-1.8,4.3-4.4,4.3c-2.5,0-4.4-1.8-4.4-4.3S57.9,4.8,60.4,4.8z M60.4,6.4
					c-1.5,0-2.5,1.2-2.5,2.7c0,1.6,1,2.7,2.5,2.7c1.5,0,2.5-1.2,2.5-2.7C63,7.6,62,6.4,60.4,6.4z"/>
				<path class="st1" d="M70.7,7.6l-1.5,5.7h-1.9L65,5h2l1.5,6L70,5h1.4l1.6,6l1.5-6h2l-2.4,8.4h-1.9L70.7,7.6z"/>
			</g>
		</g>
	</g>
</g>
</svg>
